<?xml version="1.0" encoding="UTF-8"?>
<svg xmlns="http://www.w3.org/2000/svg" width="320" height="220" viewBox="0 0 320 220" role="img" aria-label="Chiller Yard">
  <defs>
    <filter id="glow" x="-30%" y="-30%" width="160%" height="160%">
      <feGaussianBlur stdDeviation="3" result="blur"/>
      <feMerge>
        <feMergeNode in="blur"/>
        <feMergeNode in="SourceGraphic"/>
      </feMerge>
    </filter>
    <linearGradient id="panelGrad" x1="0" x2="1" y1="0" y2="1">
      <stop stop-color="#172721" offset="0"/>
      <stop stop-color="#08130f" offset="1"/>
    </linearGradient>
    <pattern id="grid" width="14" height="14" patternUnits="userSpaceOnUse">
      <path d="M 14 0 L 0 0 0 14" fill="none" stroke="#6d8478" stroke-width="0.45" opacity="0.25"/>
    </pattern>
  </defs>
  <rect width="320" height="220" rx="18" fill="url(#panelGrad)"/>
     <rect x="12" y="12" width="296" height="196" rx="14" fill="url(#grid)" stroke="#7bdff2" stroke-width="4"/>
     <g filter="url(#glow)">
       <rect x="72" y="70" width="176" height="94" rx="14" fill="#102b32" stroke="#7bdff2" stroke-width="4"/>
       <circle cx="115" cy="116" r="25" fill="none" stroke="#f4fff9" stroke-width="6"/>
       <circle cx="205" cy="116" r="25" fill="none" stroke="#f4fff9" stroke-width="6"/>
       <path d="M115 91v50M90 116h50M205 91v50M180 116h50" stroke="#7bdff2" stroke-width="4"/>
       <path d="M62 52c45 16 81 16 125 0s66-16 93 0" fill="none" stroke="#7bdff2" stroke-width="5" stroke-dasharray="9 8"/>
     </g>
     <text x="160" y="197" text-anchor="middle" fill="#f4fff9" font-family="'Geist Mono', 'SFMono-Regular', 'Menlo', monospace" font-size="19" font-weight="900" letter-spacing="0">Chiller Yard</text>
</svg>
