<?xml version="1.0" encoding="UTF-8"?>
<svg xmlns="http://www.w3.org/2000/svg" width="320" height="220" viewBox="0 0 320 220" role="img" aria-label="Community Compact">
  <defs>
    <filter id="glow" x="-30%" y="-30%" width="160%" height="160%">
      <feGaussianBlur stdDeviation="3" result="blur"/>
      <feMerge>
        <feMergeNode in="blur"/>
        <feMergeNode in="SourceGraphic"/>
      </feMerge>
    </filter>
    <linearGradient id="panelGrad" x1="0" x2="1" y1="0" y2="1">
      <stop stop-color="#172721" offset="0"/>
      <stop stop-color="#08130f" offset="1"/>
    </linearGradient>
    <pattern id="grid" width="14" height="14" patternUnits="userSpaceOnUse">
      <path d="M 14 0 L 0 0 0 14" fill="none" stroke="#6d8478" stroke-width="0.45" opacity="0.25"/>
    </pattern>
  </defs>
  <rect width="320" height="220" rx="18" fill="url(#panelGrad)"/>
     <rect x="12" y="12" width="296" height="196" rx="14" fill="url(#grid)" stroke="#f7c873" stroke-width="4"/>
     <g filter="url(#glow)">
       <path d="M74 151V91l42-30 42 30v60zM166 151V83l45-32 47 32v68z" fill="#2a2414" stroke="#f7c873" stroke-width="4"/>
       <path d="M93 151v-31h28v31M190 151v-35h32v35" stroke="#f4fff9" stroke-width="5"/>
       <circle cx="160" cy="76" r="18" fill="#7cf2b0"/>
       <path d="M160 54v44M138 76h44" stroke="#08130f" stroke-width="4"/>
     </g>
     <text x="160" y="197" text-anchor="middle" fill="#f4fff9" font-family="'Geist Mono', 'SFMono-Regular', 'Menlo', monospace" font-size="19" font-weight="900" letter-spacing="0">Community Compact</text>
</svg>
