<?xml version="1.0" encoding="UTF-8"?>
<svg xmlns="http://www.w3.org/2000/svg" width="320" height="220" viewBox="0 0 320 220" role="img" aria-label="Frontier Campus">
  <defs>
    <filter id="glow" x="-30%" y="-30%" width="160%" height="160%">
      <feGaussianBlur stdDeviation="3" result="blur"/>
      <feMerge>
        <feMergeNode in="blur"/>
        <feMergeNode in="SourceGraphic"/>
      </feMerge>
    </filter>
    <linearGradient id="panelGrad" x1="0" x2="1" y1="0" y2="1">
      <stop stop-color="#172721" offset="0"/>
      <stop stop-color="#08130f" offset="1"/>
    </linearGradient>
    <pattern id="grid" width="14" height="14" patternUnits="userSpaceOnUse">
      <path d="M 14 0 L 0 0 0 14" fill="none" stroke="#6d8478" stroke-width="0.45" opacity="0.25"/>
    </pattern>
  </defs>
  <rect width="320" height="220" rx="18" fill="url(#panelGrad)"/>
     <rect x="12" y="12" width="296" height="196" rx="14" fill="url(#grid)" stroke="#7bdff2" stroke-width="4"/>
     <g filter="url(#glow)">
       <path d="M52 151V78l54-24 54 24v73z" fill="#12243a" stroke="#7bdff2" stroke-width="4"/>
       <path d="M160 151V72l52-24 56 24v79z" fill="#1b2f46" stroke="#7aa7ff" stroke-width="4"/>
       <path d="M74 96h62M74 118h62M182 94h64M182 119h64" stroke="#f4fff9" stroke-width="5" opacity="0.72"/>
       <path d="M92 54v-22M212 48V28M242 62V36" stroke="#f7c873" stroke-width="5" stroke-linecap="round"/>
     </g>
     <text x="160" y="197" text-anchor="middle" fill="#f4fff9" font-family="'Geist Mono', 'SFMono-Regular', 'Menlo', monospace" font-size="19" font-weight="900" letter-spacing="0">Frontier Campus</text>
</svg>
