<?xml version="1.0" encoding="UTF-8"?>
<svg xmlns="http://www.w3.org/2000/svg" width="320" height="220" viewBox="0 0 320 220" role="img" aria-label="Gas Peaker">
  <defs>
    <filter id="glow" x="-30%" y="-30%" width="160%" height="160%">
      <feGaussianBlur stdDeviation="3" result="blur"/>
      <feMerge>
        <feMergeNode in="blur"/>
        <feMergeNode in="SourceGraphic"/>
      </feMerge>
    </filter>
    <linearGradient id="panelGrad" x1="0" x2="1" y1="0" y2="1">
      <stop stop-color="#172721" offset="0"/>
      <stop stop-color="#08130f" offset="1"/>
    </linearGradient>
    <pattern id="grid" width="14" height="14" patternUnits="userSpaceOnUse">
      <path d="M 14 0 L 0 0 0 14" fill="none" stroke="#6d8478" stroke-width="0.45" opacity="0.25"/>
    </pattern>
  </defs>
  <rect width="320" height="220" rx="18" fill="url(#panelGrad)"/>
     <rect x="12" y="12" width="296" height="196" rx="14" fill="url(#grid)" stroke="#ff6b6b" stroke-width="4"/>
     <g filter="url(#glow)">
       <rect x="78" y="91" width="164" height="70" rx="8" fill="#39201d" stroke="#ff6b6b" stroke-width="4"/>
       <path d="M102 91V53h30v38M190 91V44h34v47" fill="#1d1715" stroke="#f7c873" stroke-width="4"/>
       <path d="M117 48c-9-20 22-18 7-38M208 38c-14-24 28-20 11-44" fill="none" stroke="#ff6b6b" stroke-width="5" opacity="0.8"/>
       <circle cx="116" cy="126" r="12" fill="#f7c873"/>
       <circle cx="204" cy="126" r="12" fill="#f7c873"/>
     </g>
     <text x="160" y="197" text-anchor="middle" fill="#f4fff9" font-family="'Geist Mono', 'SFMono-Regular', 'Menlo', monospace" font-size="19" font-weight="900" letter-spacing="0">Gas Peaker</text>
</svg>
