<?xml version="1.0" encoding="UTF-8"?>
<svg xmlns="http://www.w3.org/2000/svg" width="320" height="220" viewBox="0 0 320 220" role="img" aria-label="GPU Pod">
  <defs>
    <filter id="glow" x="-30%" y="-30%" width="160%" height="160%">
      <feGaussianBlur stdDeviation="3" result="blur"/>
      <feMerge>
        <feMergeNode in="blur"/>
        <feMergeNode in="SourceGraphic"/>
      </feMerge>
    </filter>
    <linearGradient id="panelGrad" x1="0" x2="1" y1="0" y2="1">
      <stop stop-color="#172721" offset="0"/>
      <stop stop-color="#08130f" offset="1"/>
    </linearGradient>
    <pattern id="grid" width="14" height="14" patternUnits="userSpaceOnUse">
      <path d="M 14 0 L 0 0 0 14" fill="none" stroke="#6d8478" stroke-width="0.45" opacity="0.25"/>
    </pattern>
  </defs>
  <rect width="320" height="220" rx="18" fill="url(#panelGrad)"/>
     <rect x="12" y="12" width="296" height="196" rx="14" fill="url(#grid)" stroke="#7cf2b0" stroke-width="4"/>
     <g filter="url(#glow)">
       <rect x="68" y="54" width="184" height="104" rx="10" fill="#14241d" stroke="#7cf2b0" stroke-width="4"/>
       <rect x="84" y="70" width="18" height="70" rx="4" fill="#7cf2b0" opacity="0.95"/><rect x="112" y="70" width="18" height="70" rx="4" fill="#32c4b5" opacity="0.95"/><rect x="140" y="70" width="18" height="70" rx="4" fill="#7cf2b0" opacity="0.95"/><rect x="168" y="70" width="18" height="70" rx="4" fill="#32c4b5" opacity="0.95"/><rect x="196" y="70" width="18" height="70" rx="4" fill="#7cf2b0" opacity="0.95"/><rect x="224" y="70" width="18" height="70" rx="4" fill="#32c4b5" opacity="0.95"/>
       <path d="M54 166h212" stroke="#7cf2b0" stroke-width="5" stroke-linecap="round"/>
       <path d="M78 42h164" stroke="#7bdff2" stroke-width="3" stroke-dasharray="7 8"/>
     </g>
     <text x="160" y="197" text-anchor="middle" fill="#f4fff9" font-family="'Geist Mono', 'SFMono-Regular', 'Menlo', monospace" font-size="19" font-weight="900" letter-spacing="0">GPU Pod</text>
</svg>
