<?xml version="1.0" encoding="UTF-8"?>
<svg xmlns="http://www.w3.org/2000/svg" width="320" height="220" viewBox="0 0 320 220" role="img" aria-label="SMR Deal">
  <defs>
    <filter id="glow" x="-30%" y="-30%" width="160%" height="160%">
      <feGaussianBlur stdDeviation="3" result="blur"/>
      <feMerge>
        <feMergeNode in="blur"/>
        <feMergeNode in="SourceGraphic"/>
      </feMerge>
    </filter>
    <linearGradient id="panelGrad" x1="0" x2="1" y1="0" y2="1">
      <stop stop-color="#172721" offset="0"/>
      <stop stop-color="#08130f" offset="1"/>
    </linearGradient>
    <pattern id="grid" width="14" height="14" patternUnits="userSpaceOnUse">
      <path d="M 14 0 L 0 0 0 14" fill="none" stroke="#6d8478" stroke-width="0.45" opacity="0.25"/>
    </pattern>
  </defs>
  <rect width="320" height="220" rx="18" fill="url(#panelGrad)"/>
     <rect x="12" y="12" width="296" height="196" rx="14" fill="url(#grid)" stroke="#32c4b5" stroke-width="4"/>
     <g filter="url(#glow)">
       <path d="M80 164c8-55 22-86 47-98h66c25 12 39 43 47 98z" fill="#15312b" stroke="#32c4b5" stroke-width="5"/>
       <circle cx="160" cy="109" r="31" fill="#08130f" stroke="#7cf2b0" stroke-width="5"/>
       <path d="M160 79v60M133 124l54-30M133 94l54 30" stroke="#7cf2b0" stroke-width="5" stroke-linecap="round"/>
       <path d="M105 59c21-15 88-15 110 0" fill="none" stroke="#f4fff9" stroke-width="4" opacity="0.66"/>
     </g>
     <text x="160" y="197" text-anchor="middle" fill="#f4fff9" font-family="'Geist Mono', 'SFMono-Regular', 'Menlo', monospace" font-size="19" font-weight="900" letter-spacing="0">SMR Deal</text>
</svg>
