<?xml version="1.0" encoding="UTF-8"?>
<svg xmlns="http://www.w3.org/2000/svg" width="320" height="220" viewBox="0 0 320 220" role="img" aria-label="Solar + Battery">
  <defs>
    <filter id="glow" x="-30%" y="-30%" width="160%" height="160%">
      <feGaussianBlur stdDeviation="3" result="blur"/>
      <feMerge>
        <feMergeNode in="blur"/>
        <feMergeNode in="SourceGraphic"/>
      </feMerge>
    </filter>
    <linearGradient id="panelGrad" x1="0" x2="1" y1="0" y2="1">
      <stop stop-color="#172721" offset="0"/>
      <stop stop-color="#08130f" offset="1"/>
    </linearGradient>
    <pattern id="grid" width="14" height="14" patternUnits="userSpaceOnUse">
      <path d="M 14 0 L 0 0 0 14" fill="none" stroke="#6d8478" stroke-width="0.45" opacity="0.25"/>
    </pattern>
  </defs>
  <rect width="320" height="220" rx="18" fill="url(#panelGrad)"/>
     <rect x="12" y="12" width="296" height="196" rx="14" fill="url(#grid)" stroke="#9cf27e" stroke-width="4"/>
     <g filter="url(#glow)">
       <circle cx="96" cy="68" r="26" fill="#f7c873"/>
       <path d="M52 145l36-56h96l-31 56zM166 145l31-56h70l-24 56z" fill="#1e4c43" stroke="#9cf27e" stroke-width="4"/>
       <path d="M91 105h86M78 124h87M190 106h68M181 124h69" stroke="#7bdff2" stroke-width="3" opacity="0.65"/>
       <rect x="66" y="150" width="188" height="18" rx="5" fill="#9cf27e"/>
     </g>
     <text x="160" y="197" text-anchor="middle" fill="#f4fff9" font-family="'Geist Mono', 'SFMono-Regular', 'Menlo', monospace" font-size="19" font-weight="900" letter-spacing="0">Solar + Battery</text>
</svg>
