<?xml version="1.0" encoding="UTF-8"?>
<svg xmlns="http://www.w3.org/2000/svg" width="320" height="220" viewBox="0 0 320 220" role="img" aria-label="Water Reuse">
  <defs>
    <filter id="glow" x="-30%" y="-30%" width="160%" height="160%">
      <feGaussianBlur stdDeviation="3" result="blur"/>
      <feMerge>
        <feMergeNode in="blur"/>
        <feMergeNode in="SourceGraphic"/>
      </feMerge>
    </filter>
    <linearGradient id="panelGrad" x1="0" x2="1" y1="0" y2="1">
      <stop stop-color="#172721" offset="0"/>
      <stop stop-color="#08130f" offset="1"/>
    </linearGradient>
    <pattern id="grid" width="14" height="14" patternUnits="userSpaceOnUse">
      <path d="M 14 0 L 0 0 0 14" fill="none" stroke="#6d8478" stroke-width="0.45" opacity="0.25"/>
    </pattern>
  </defs>
  <rect width="320" height="220" rx="18" fill="url(#panelGrad)"/>
     <rect x="12" y="12" width="296" height="196" rx="14" fill="url(#grid)" stroke="#7aa7ff" stroke-width="4"/>
     <g filter="url(#glow)">
       <path d="M160 42c47 46 70 77 70 105 0 38-30 55-70 55s-70-17-70-55c0-28 23-59 70-105z" fill="#132842" stroke="#7aa7ff" stroke-width="5"/>
       <path d="M111 145c35 19 65 19 98 0M123 118c24 12 50 12 74 0" fill="none" stroke="#7bdff2" stroke-width="6" stroke-linecap="round"/>
       <path d="M160 72v34" stroke="#f4fff9" stroke-width="6" stroke-linecap="round"/>
     </g>
     <text x="160" y="197" text-anchor="middle" fill="#f4fff9" font-family="'Geist Mono', 'SFMono-Regular', 'Menlo', monospace" font-size="19" font-weight="900" letter-spacing="0">Water Reuse</text>
</svg>
