<?xml version="1.0" encoding="UTF-8"?>
<svg xmlns="http://www.w3.org/2000/svg" width="1440" height="900" viewBox="0 0 1440 900" role="img" aria-label="Command room background">
  <defs>
    <filter id="glow" x="-30%" y="-30%" width="160%" height="160%">
      <feGaussianBlur stdDeviation="3" result="blur"/>
      <feMerge>
        <feMergeNode in="blur"/>
        <feMergeNode in="SourceGraphic"/>
      </feMerge>
    </filter>
    <linearGradient id="panelGrad" x1="0" x2="1" y1="0" y2="1">
      <stop stop-color="#172721" offset="0"/>
      <stop stop-color="#08130f" offset="1"/>
    </linearGradient>
    <pattern id="grid" width="14" height="14" patternUnits="userSpaceOnUse">
      <path d="M 14 0 L 0 0 0 14" fill="none" stroke="#6d8478" stroke-width="0.45" opacity="0.25"/>
    </pattern>
  </defs>
  <rect width="1440" height="900" fill="#08130f"/>
     <rect width="1440" height="900" fill="url(#grid)" opacity="0.95"/>
     <path d="M0 670C220 605 411 722 620 664s405-182 820-78v314H0z" fill="#0d221b" opacity="0.95"/>
     <path d="M0 0h1440v120H0z" fill="#101c18" opacity="0.9"/>
     <path d="M80 720h1280" stroke="#7cf2b0" stroke-width="2" opacity="0.35"/>
     <circle cx="120" cy="722" r="10" fill="#f7c873" opacity="0.55"/><circle cx="222" cy="696" r="14" fill="#7bdff2" opacity="0.55"/><circle cx="324" cy="670" r="18" fill="#f7c873" opacity="0.55"/><circle cx="426" cy="644" r="10" fill="#7bdff2" opacity="0.55"/><circle cx="528" cy="722" r="14" fill="#f7c873" opacity="0.55"/><circle cx="630" cy="696" r="18" fill="#7bdff2" opacity="0.55"/><circle cx="732" cy="670" r="10" fill="#f7c873" opacity="0.55"/><circle cx="834" cy="644" r="14" fill="#7bdff2" opacity="0.55"/><circle cx="936" cy="722" r="18" fill="#f7c873" opacity="0.55"/><circle cx="1038" cy="696" r="10" fill="#7bdff2" opacity="0.55"/><circle cx="1140" cy="670" r="14" fill="#f7c873" opacity="0.55"/><circle cx="1242" cy="644" r="18" fill="#7bdff2" opacity="0.55"/><circle cx="1344" cy="722" r="10" fill="#f7c873" opacity="0.55"/>
</svg>
